<?xml version="1.0" encoding="UTF-8" standalone="no"?>
<!-- Created with Inkscape (http://www.inkscape.org/) -->

<svg
   width="210mm"
   height="297mm"
   viewBox="0 0 210 297"
   version="1.1"
   id="svg1"
   inkscape:version="1.3.2 (1:1.3.2+202311252150+091e20ef0f)"
   sodipodi:docname="drawing-1.svg"
   xmlns:inkscape="http://www.inkscape.org/namespaces/inkscape"
   xmlns:sodipodi="http://sodipodi.sourceforge.net/DTD/sodipodi-0.dtd"
   xmlns="http://www.w3.org/2000/svg"
   xmlns:svg="http://www.w3.org/2000/svg">
  <sodipodi:namedview
     id="namedview1"
     pagecolor="#ffffff"
     bordercolor="#000000"
     borderopacity="0.25"
     inkscape:showpageshadow="2"
     inkscape:pageopacity="0.0"
     inkscape:pagecheckerboard="0"
     inkscape:deskcolor="#d1d1d1"
     inkscape:document-units="mm"
     inkscape:zoom="13.128941"
     inkscape:cx="424.59632"
     inkscape:cy="485.45424"
     inkscape:window-width="1920"
     inkscape:window-height="1056"
     inkscape:window-x="0"
     inkscape:window-y="24"
     inkscape:window-maximized="1"
     inkscape:current-layer="layer1" />
  <defs
     id="defs1" />
  <g
     inkscape:label="Layer 1"
     inkscape:groupmode="layer"
     id="layer1">
    <path
       style="fill:#000000;fill-opacity:1;fill-rule:nonzero;stroke:#000000;stroke-width:0.00243022;stroke-opacity:1"
       d="m 112.53374,132.37401 c -0.0572,-0.0124 -0.10826,-0.0549 -0.13102,-0.10898 -0.0186,-0.0443 -0.0183,-0.10022 0.001,-0.143 0.0172,-0.0381 0.0497,-0.072 0.0862,-0.0898 0.0272,-0.0132 0.0483,-0.018 0.0802,-0.018 0.0319,0 0.053,0.005 0.0803,0.018 0.0278,0.0135 0.056,0.0391 0.0743,0.0672 l 0.0125,0.0192 h 0.98879 0.98878 v 0.0753 c 0,0.0414 -2.6e-4,0.0755 -5.2e-4,0.0758 -2.7e-4,2.3e-4 -0.44566,10e-4 -0.98959,0.002 l -0.98899,0.001 -0.008,0.0146 c -0.0115,0.0197 -0.0439,0.0515 -0.065,0.0639 -0.0292,0.017 -0.0505,0.0229 -0.0872,0.0238 -0.0174,5.3e-4 -0.036,-1.4e-4 -0.0413,-0.001 z m 0.0359,-0.10146 c -0.003,-5.3e-4 -0.008,-5.3e-4 -0.0121,-4e-5 -0.004,5.3e-4 -0.001,10e-4 0.005,10e-4 0.007,2e-5 0.01,-5.3e-4 0.007,-10e-4 z"
       id="path11" />
    <circle
       style="fill:#000000;fill-opacity:1;fill-rule:nonzero;stroke:#000000;stroke-width:0.153;stroke-dasharray:none;stroke-opacity:1"
       id="path13"
       cx="112.57223"
       cy="131.23163"
       r="0.1" />
    <circle
       style="fill:#000000;fill-opacity:1;fill-rule:nonzero;stroke:#000000;stroke-width:0.153;stroke-dasharray:none;stroke-opacity:1"
       id="path13-6"
       cx="108.67051"
       cy="132.19621"
       r="0.1" />
    <circle
       style="fill:#000000;fill-opacity:1;fill-rule:nonzero;stroke:#000000;stroke-width:0.153;stroke-dasharray:none;stroke-opacity:1"
       id="path13-4"
       cx="114.6683"
       cy="132.19472"
       r="0.1" />
    <circle
       style="fill:#000000;fill-opacity:1;fill-rule:nonzero;stroke:#000000;stroke-width:0.153;stroke-dasharray:none;stroke-opacity:1"
       id="path13-69"
       cx="108.67557"
       cy="129.4071"
       r="0.1" />
    <path
       style="fill:#000000;fill-opacity:1;fill-rule:nonzero;stroke:#000000;stroke-width:0.153;stroke-dasharray:none;stroke-opacity:1"
       d="m 112.5722,132.19472 -3.90163,0.003"
       id="path15" />
    <path
       style="fill:#000000;fill-opacity:1;fill-rule:nonzero;stroke:#000000;stroke-width:0.153;stroke-dasharray:none;stroke-opacity:1"
       d="m 108.67057,132.19772 0.005,-2.89062"
       id="path16" />
    <path
       style="fill:#000000;fill-opacity:1;fill-rule:nonzero;stroke:#000000;stroke-width:0.153;stroke-dasharray:none;stroke-opacity:1"
       d="m 108.67557,129.4071 5.99273,2.79868"
       id="path17" />
    <path
       style="fill:#000000;fill-opacity:1;fill-rule:nonzero;stroke:#000000;stroke-width:0.153;stroke-dasharray:none;stroke-opacity:1"
       d="m 112.5722,132.19472 6e-5,-0.96308"
       id="path18" />
  </g>
</svg>
